<?xml version="1.0" standalone="no"?>
<!DOCTYPE svg PUBLIC "-//W3C//DTD SVG 20010904//EN"
 "http://www.w3.org/TR/2001/REC-SVG-20010904/DTD/svg10.dtd">
<svg version="1.0" xmlns="http://www.w3.org/2000/svg"
 width="200.000000pt" height="200.000000pt" viewBox="0 0 200.000000 200.000000"
 preserveAspectRatio="xMidYMid meet">
<metadata>
Created by potrace 1.16, written by Peter Selinger 2001-2019
</metadata>
<g transform="translate(0.000000,200.000000) scale(0.100000,-0.100000)"
fill="#000000" stroke="none">
<path d="M860 1834 l-175 -34 -284 -284 -284 -284 6 -48 c5 -46 10 -53 174
-216 168 -166 170 -168 213 -168 l44 0 285 284 285 284 37 202 c60 324 51 332
-301 264z"/>
<path d="M900 1105 l-94 -95 30 -32 c102 -109 715 -752 759 -795 50 -50 56
-53 105 -53 50 0 55 3 111 58 66 63 82 107 59 161 -9 24 -693 689 -841 819
l-35 31 -94 -94z"/>
</g>
</svg>
